<?xml version="1.0" encoding="utf-8"?>
<!-- Generator: Adobe Illustrator 25.4.1, SVG Export Plug-In . SVG Version: 6.00 Build 0)  -->
<svg version="1.1" id="svg6033" xmlns="http://www.w3.org/2000/svg" xmlns:xlink="http://www.w3.org/1999/xlink" x="0px" y="0px"
	 viewBox="0 0 640 480" style="enable-background:new 0 0 640 480;" xml:space="preserve">
<style type="text/css">
	.st0{fill:#914E3E;}
	.st1{fill:#333333;}
	.st2{fill:#0B0C0C;}
	.st3{fill:#616666;}
	.st4{fill:#2F3335;}
	.st5{fill:#F5F2F5;}
	.st6{fill:#4D4D4D;}
	.st7{fill:#59291F;}
	.st8{fill:#9B402F;}
	.st9{fill:#72291A;}
	.st10{fill:#F9FFFC;}
	.st11{fill:#231812;}
	.st12{fill:#1D1E21;}
	.st13{fill:#2B0C07;}
	.st14{fill:#F8F8F8;}
</style>
<g id="Layer_2_00000100378063596521642370000015496712116521608883_">
	<g id="Layer_1-2">
		<g id="Body_01">
			<path id="Neck" class="st0" d="M225.7,87.7V100l7,2.4c3.3,1.2,6.9,1.2,10.2,0l7-2.4V87.7H225.7z"/>
			<path id="Trousers" class="st1" d="M253.2,381h11.5L263,222.5c0-0.2,0-0.4,0-0.6l-2.5-14.3H215l-2.5,14.3c0,0.2,0,0.4-0.1,0.6
				L210.8,381h11.4l13.9-140.3h3.1L253.2,381z"/>
			<polygon id="polygon7349" class="st2" points="261.6,213.9 260.5,207.6 215,207.6 213.9,213.9 			"/>
			<path id="rect8877" class="st3" d="M235.5,207h4.5c2.2,0,3.9,1.8,3.9,3.9l0,0c0,2.2-1.8,3.9-3.9,3.9h-4.5c-2.2,0-3.9-1.8-3.9-3.9
				l0,0C231.6,208.7,233.3,207,235.5,207z"/>
			<g id="Hand_R">
				<path id="path8198" class="st0" d="M281.5,235.6h-7.1l0.1,2.5l-2,5.2c0,0,0.2,11.7,2.2,11.3c3.5-0.6-0.1-7.9,1-7.7
					s2.4,7.2,2.4,7.2s-5,7.5-0.8,9.6c0,0,6.8-8.1,7-12.2l-3-12.9L281.5,235.6z"/>
				<path id="path4440" class="st1" d="M267.1,150.5c0,0-5.8-40.3,8.5-45.5c3.1,1.2,5.6,3.7,7.7,12.7c6.5,38.7,3.3,119.4,3.3,119.4
					c-5.4,2.4-14.1,0.5-14.1,0.5L267.1,150.5z"/>
			</g>
			<g id="Shoese_L">
				<path id="path4526" class="st4" d="M224.1,390.8c-0.1,0.7-0.4,1.3-0.7,1.9c-0.1,0.3-0.4,0.5-0.7,0.5c-2.4,0.3-13.9,2-19,4.3
					c-2,0.9-14.8,1.6-18.4,1.8c-0.4,0-0.9-0.2-1-0.7c-0.3,0.6-0.4,1.3-0.3,2c0,0.1,0.2,0.2,0.3,0.2c1.9,0,16.4-0.2,18.9-0.6
					c2.7-0.5,20.1-4.6,21-5S224.4,392.6,224.1,390.8z"/>
				<path id="path6405" class="st2" d="M210.8,380.8h11.5c3.3,6.6,1.8,10.7,1.1,11.9c-0.1,0.3-0.4,0.5-0.7,0.5
					c-2.4,0.3-13.9,2-19,4.3c-2,0.9-14.8,1.6-18.4,1.8c-0.6,0-1-0.4-1-1c0.3-4.5,4.6-9.8,10.6-10.9
					C205.5,385.4,210.8,380.8,210.8,380.8z"/>
			</g>
			<g id="Shoese_R">
				<path id="path5170" class="st4" d="M251.4,390.8c0.1,0.7,0.4,1.3,0.7,1.9c0.1,0.3,0.4,0.5,0.7,0.5c2.4,0.3,13.9,2,19,4.3
					c2,0.9,14.8,1.6,18.4,1.8c0.4,0,0.9-0.2,1-0.7c0.3,0.6,0.4,1.3,0.3,2c0,0.1-0.2,0.2-0.3,0.2c-2,0-16.4-0.2-18.9-0.6
					c-2.7-0.5-20.1-4.6-21-5S251.1,392.6,251.4,390.8z"/>
				<path id="path6305" class="st2" d="M264.6,380.8h-11.4c-3.3,6.6-1.8,10.7-1.1,11.9c0.1,0.3,0.4,0.5,0.7,0.5
					c2.4,0.3,13.9,2,19,4.3c2,0.9,14.8,1.6,18.4,1.8c0.6,0,1-0.4,1-1c-0.4-4.5-4.6-9.8-10.6-10.9C270,385.4,264.6,380.8,264.6,380.8
					z"/>
			</g>
			<g id="Shirt">
				<polygon id="polygon6796" class="st5" points="251.9,96.7 249.8,92.3 237.7,103.2 225.7,92.3 223.6,96.7 232.1,144.2 
					237.7,153.9 243.4,144.2 				"/>
				<path id="path9988" class="st5" d="M246.6,98.3c-1.5-0.1-8.7,4.8-8.8,4.9c-0.1-0.1-7.4-5-8.8-4.9c-1.5,0.1-4.5,4.8-4.5,4.8
					s3.2-3.5,4.4-3.4c1,0.1,6.6,2.5,8.4,3.2v51.4h0.5v-51.2c0,0,7.8-3.4,9-3.5s4.4,3.4,4.4,3.4S248,98.4,246.6,98.3z"/>
				<circle id="circle4559" class="st5" cx="239.3" cy="105.1" r="1.1"/>
				<path id="path3845" class="st5" d="M241.3,207c-3.2-2.4-5.4-4.4-5.4-4.4c-0.9,1.5-1.9,3-3,4.4H241.3z"/>
			</g>
			<g id="Jacket">
				<path id="path3686" class="st1" d="M275.5,105l-23.6-8.3l-7.3,40.9c-0.8,4.4-2.3,8.6-4.5,12.4l-2.3,3.9l-2.2-3.9
					c-2.2-3.8-3.7-8-4.5-12.4l-7.3-40.9L200,105c-3.6,1.2,4.4,40.2,4.4,40.2c1.4,5.2,6.1,25.8,7.1,30.4l2.2,38.7h5.2
					c7.8,0,13-5,16.9-11.7c0,0,13,11.7,20.8,11.7h5.3l2.2-38.7c1-4.7,5.7-25.2,7.1-30.4C271.1,145.1,279.1,106.2,275.5,105z"/>
				<circle id="circle2790" class="st1" cx="238.9" cy="186.2" r="1.9"/>
				<circle id="circle1874" class="st1" cx="238.9" cy="169.2" r="1.9"/>
				<path id="path8382" class="st6" d="M237.7,159.6c8.8-8.9,15.4-19.8,19.3-31.7l-5.7-4.3l7.4-1.3c1.9-7.2,3.1-14.6,3.5-22
					l-10.3-3.6l-5.9,30.2c-0.8,4.4-8.2,27-8.2,27s-7.4-22.7-8.2-27l-5.9-30.2l-11.4,4c0.3,7.3,1.5,14.5,3.5,21.5l8.5,1.5l-6.4,4.8
					c4,10.8,10.1,20.8,18,29.2l-1,3.8v40.3l1.1,0.8c-1-14.1-0.2-37.1,0-41.1L237.7,159.6z"/>
			</g>
		</g>
		<g id="Face_03">
			<g id="ears">
				<path id="path9054" class="st0" d="M212.3,44.4V33h-4.6c-2.4,0-4.4,2.8-4.4,6.6c0.1,5.5,2,7.3,4.4,7.3h4.7
					C212.3,46.1,212.3,45.2,212.3,44.4z"/>
				<path id="path2575" class="st7" d="M212.4,37h-2.5c-1.5,0.1-2.7,1.5-2.6,3l0,0c-0.1,1.5,1,2.9,2.6,3h2.5V37z"/>
				<path id="path6010" class="st0" d="M264.2,44.4V33h4.6c2.4,0,4.4,2.8,4.4,6.6c-0.1,5.5-2,7.3-4.4,7.3h-4.7
					C264.2,46.1,264.2,45.2,264.2,44.4z"/>
				<path id="path5542" class="st7" d="M264.1,37h2.5c1.5,0.1,2.7,1.5,2.6,3c0,0,0,0,0,0l0,0c0.1,1.5-1,2.9-2.6,3c0,0,0,0,0,0h-2.5
					V37z"/>
			</g>
			<path id="Face" class="st0" d="M243.6-0.3h-10.6c-11.8,0-21.4,11-21.4,24.4v36.9c0,5,7.7,11.1,15.9,16v14.8h21.7V77
				c8.1-4.9,15.9-11,15.9-16V24.1C265,10.7,255.4-0.3,243.6-0.3z"/>
			<path id="Shadow" class="st7" d="M238.3,80.8c-3.2,0-7.1-1.5-10.9-3.7v4.4c3.8,2.2,7.6,3.6,10.9,3.6c3.3,0,7-1.4,10.9-3.7V77
				C245.3,79.3,241.5,80.8,238.3,80.8z"/>
			<path id="path4310" class="st8" d="M223.3,47.4c0.1-1.5-1.9-2.2-4.3-2.2h-2.5c-1.1,0.1-2,1.1-1.9,2.2l0,0
				c-0.1,1.1,0.8,2.1,1.9,2.2h2.5C221.4,49.6,223.2,49,223.3,47.4z"/>
			<path id="path2844" class="st8" d="M253.2,47.4c-0.1-1.5,1.9-2.2,4.3-2.2h2.5c1.2,0.1,2,1.1,1.9,2.2l0,0c0.1,1.1-0.8,2.1-1.9,2.2
				h-2.5C255.1,49.6,253.3,49,253.2,47.4z"/>
			<path id="nose" class="st9" d="M238.3,53.6c-2.8,0-5.6-0.3-8.4-1c-1-0.2-1.9,0.3-1.5,0.8c1.7,1.9,5.5,3.8,9.8,3.8
				c4.4,0,8.1-1.8,9.8-3.8c0.5-0.5-0.5-1.1-1.5-0.8C243.9,53.2,241.1,53.6,238.3,53.6z"/>
			<g id="Eyes">
				<g id="Eye_L">
					<path id="path2080" class="st7" d="M228.7,37.7c0,2.5-2,4.5-4.5,4.5s-4.5-2-4.5-4.5s2-4.5,4.5-4.5l0,0
						C226.7,33.2,228.7,35.2,228.7,37.7z"/>
					<path id="path2113" class="st10" d="M228,38.4c0,2.1-1.7,3.8-3.8,3.8c-2.1,0-3.8-1.7-3.8-3.8s1.7-3.8,3.8-3.8l0,0
						C226.3,34.6,228,36.3,228,38.4z"/>
					<path id="path5260" class="st11" d="M226,38.4c-0.6,0-1.1-0.5-1.1-1.1v0c0-0.4,0.2-0.8,0.6-1c-1.1-0.8-2.7-0.5-3.4,0.7
						c-0.8,1.1-0.5,2.7,0.7,3.4c1.1,0.8,2.7,0.5,3.4-0.7c0.3-0.4,0.4-0.9,0.4-1.4c0-0.1,0-0.1,0-0.2C226.5,38.3,226.2,38.4,226,38.4
						z"/>
				</g>
				<g id="Eye_R">
					<path id="path7097" class="st7" d="M256.9,37.7c0,2.5-2,4.5-4.5,4.5c-2.5,0-4.5-2-4.5-4.5s2-4.5,4.5-4.5l0,0
						C254.8,33.2,256.9,35.2,256.9,37.7z"/>
					<circle id="circle4582" class="st10" cx="252.4" cy="38.4" r="3.8"/>
					<path id="path124" class="st11" d="M254.2,38.4c-0.6,0-1.1-0.5-1.1-1.1c0-0.4,0.2-0.8,0.6-1c-1.1-0.8-2.7-0.4-3.4,0.7
						c-0.8,1.1-0.4,2.7,0.7,3.4c1.1,0.8,2.7,0.4,3.4-0.7c0.3-0.4,0.4-0.9,0.4-1.4c0-0.1,0-0.1,0-0.2
						C254.6,38.3,254.4,38.4,254.2,38.4z"/>
				</g>
			</g>
			<g id="Brows">
				<path id="path8489" class="st12" d="M217.5,36.3c-0.4,0.1-0.8-0.1-1-0.4c-0.3-0.4-0.2-1.1,0.2-1.4c0,0,0,0,0,0
					c0.8-0.6,1.6-1.1,2.5-1.6c2-0.7,9.8-1.8,10.2-1.8c0.5-0.1,1.1,0.3,1.1,0.8c0,0,0,0,0,0c0.1,0.5-0.3,1.1-0.8,1.1c0,0,0,0,0,0l0,0
					c-3.3,0.4-6.6,1-9.8,1.8c-0.7,0.4-1.4,0.8-2,1.2C217.8,36.3,217.6,36.3,217.5,36.3z"/>
				<path id="path5006" class="st12" d="M259.1,36.3c0.4,0.1,0.8-0.1,1-0.4c0.3-0.4,0.2-1.1-0.2-1.4c0,0,0,0,0,0
					c-0.8-0.6-1.6-1.1-2.5-1.5c-2-0.7-9.8-1.8-10.2-1.8c-0.5-0.1-1.1,0.3-1.1,0.8c0,0,0,0,0,0c-0.1,0.5,0.3,1.1,0.8,1.1c0,0,0,0,0,0
					l0,0c3.3,0.4,6.6,1,9.8,1.8c0.7,0.4,1.4,0.8,2,1.2C258.8,36.3,258.9,36.3,259.1,36.3z"/>
			</g>
			<path id="path205" class="st12" d="M265,46.9c0,0,9.9-56.9-26.4-56.9c-41.5,0-27.1,56.9-27.1,56.9s-0.2-35.5,7.3-37.9
				c6.3-2,3.4,3.7,18.9,3.7c15.5,0,12.4-5,18.9-3.2C263.2,11.4,265,46.9,265,46.9z"/>
			<g id="Mouth">
				<path id="Mouth-2" class="st7" d="M238.3,58.7c-4.8,0-6,0.9-11.9,0.7c-0.2,0-0.3,0-0.5-0.1c1.1,8.6,6,15,12.1,15
					c6.1,0,11.7-6.3,12.6-15c-0.2,0-0.3,0.1-0.5,0.1C243.2,59.7,243.1,58.7,238.3,58.7z"/>
				<path id="path8970" class="st13" d="M238.3,62c-5.2,0-9.7-0.9-12.4-2.8c0.7,5.6,6,12.1,12.4,12.1c6.4,0,11.7-6.5,12.4-12.1
					C248,61.2,243.4,62,238.3,62z"/>
				<path id="path3669" class="st14" d="M238.3,71.4c2,0,3.9-0.6,5.6-1.7c-0.5-0.4-1.2-0.7-1.8-0.7h-7.5c-0.7,0-1.3,0.3-1.8,0.7
					C234.4,70.8,236.3,71.3,238.3,71.4z"/>
				<path id="path3170" class="st14" d="M248.1,61.8l0.9-1.6c-2.7,1.3-6.5,1.8-10.8,1.8s-8.1-0.6-10.8-1.8l0.9,1.6
					c2.9,2,6.3,3,9.9,3C243.8,64.9,247.9,62.1,248.1,61.8z"/>
			</g>
		</g>
		<path id="path9401" class="st1" d="M201.2,105.2c-3.5,1-6.5,3.3-9.8,12.8c-5.4,20.2-9.1,40.8-11,61.6c0,0.2-0.5-0.2-1.2-1.2
			c1.5,8.1,3.5,16.3,3.5,24.9c14.7,7.1,12.8,3.7,16.8-15.2l5.6-32.6C205.1,155.4,216,112.5,201.2,105.2z"/>
		<g id="habd">
			<path id="Wrist_01" class="st0" d="M159.4,139.1l-4.5-10.8c2.3-3.4,0.2-8.8,0.2-8.8c-0.7-3.9,0.1-9.6-1-9.5
				c-1.9,0.1-1.4,4.3-1.4,4.3s0.5,3.8-0.7,3.7c-0.8-0.1-4.7-14.8-5.4-15.5c0,0-0.8-1.2-1.7-0.9c-1.4,0.4-0.8,2.1-0.8,2.1
				c0,0.8,4.7,13.1,3.9,13.2s-6-12.2-6.5-13.2c0,0-0.6-1.6-1.9-1c-1.5,0.6-0.6,2.5-0.6,2.5c0.7,1.8,6.3,13.4,5.6,13.7
				s-3.4-5.8-6.9-10.3c0,0-1-1.7-2.2-0.9s0.3,2.7,0.3,2.7c3,4.6,7.5,10.5,6.5,10.6s-4.8-5.6-5.8-6.2c0,0-1-0.9-1.8-0.1
				s0.6,2.1,0.6,2.1c0.5,0.6,5.3,5.8,5.6,6.9s2.3,5.1,3.6,6s3.3,2.1,3.3,2.1l3.8,10.6L159.4,139.1z"/>
			<path id="path5169" class="st1" d="M160,131.5c-4.4,5.7-13.8,7.4-13.8,7.4l35.9,63.6l0.6,0.4c1.2-8.5,0.4-16.9,0-25.1
				C178.2,170,160,131.5,160,131.5z"/>
			
				<animateTransform  accumulate="none" additive="sum" attributeName="transform" attributeType="auto" begin="0s" calcMode="spline" dur="1s" fill="freeze" id="animateTransform9032" keySplines="0 0 1 1" keyTimes="0;1" repeatCount="indefinite" restart="always" type="rotate" values="0 52 207;14 52 207">
				</animateTransform>
		</g>
	</g>
</g>
</svg>
