<svg xmlns="http://www.w3.org/2000/svg" viewBox="0 0 157 410.85"><defs><style>.cls-1{fill:#914e3e;}.cls-2{fill:#333;}.cls-3{fill:#0b0c0c;}.cls-4{fill:#616666;}.cls-5{fill:#2f3335;}.cls-6{fill:#f5f2f5;}.cls-7{fill:#4d4d4d;}.cls-8{fill:#59291f;}.cls-9{fill:#9b402f;}.cls-10{fill:#72291a;}.cls-11{fill:#f9fffc;}.cls-12{fill:#231812;}.cls-13{fill:#1d1e21;}.cls-14{fill:#2b0c07;}.cls-15{fill:#f8f8f8;}</style></defs><g id="Layer_2" data-name="Layer 2"><g id="Layer_1-2" data-name="Layer 1"><g id="Body_01"><path id="Neck" class="cls-1" d="M91.18,97.69v12.36l7,2.43a15.41,15.41,0,0,0,10.21,0l7-2.43V97.69Z"/><path id="Trousers" class="cls-2" d="M118.71,391h11.45l-1.67-158.47a3.64,3.64,0,0,0,0-.57L126,217.62H80.49L78,231.91a3.66,3.66,0,0,0-.05.57L76.33,391H87.78l13.9-140.33h3.13Z"/><polygon class="cls-3" points="127.08 223.91 126 217.62 80.49 217.62 79.41 223.91 127.08 223.91"/><rect class="cls-4" x="97.07" y="217" width="12.35" height="7.82" rx="3.91"/><g id="Hand_R"><path class="cls-1" d="M147,245.62l-7.1,0,.11,2.51-2,5.2s.16,11.67,2.22,11.34c3.45-.56-.06-7.92,1-7.74s2.42,7.18,2.42,7.18-5,7.55-.82,9.64c0,0,6.78-8.08,7-12.25l-3-12.86Z"/><path class="cls-2" d="M132.58,160.55s-5.76-40.34,8.51-45.51c3.14,1.23,5.59,3.7,7.69,12.69,6.5,38.74,3.29,119.42,3.29,119.42-5.41,2.41-14.14.5-14.14.5Z"/></g><g id="Shoese_L"><path class="cls-5" d="M89.6,400.82a7.39,7.39,0,0,1-.68,1.91,1,1,0,0,1-.71.5c-2.41.33-13.88,2-19,4.31-2,.89-14.75,1.58-18.45,1.76a1,1,0,0,1-1-.67,3.49,3.49,0,0,0-.27,2,.29.29,0,0,0,.29.22c1.95,0,16.39-.18,18.92-.6,2.72-.45,20.12-4.61,21-5S89.93,402.68,89.6,400.82Z"/><path class="cls-3" d="M76.33,390.8H87.8c3.29,6.63,1.79,10.66,1.12,11.93a1,1,0,0,1-.71.5c-2.41.33-13.88,2-19,4.31-2,.89-14.75,1.58-18.45,1.76a1,1,0,0,1-1-1c.35-4.47,4.56-9.83,10.59-10.9C71,395.48,76.33,390.8,76.33,390.8Z"/></g><g id="Shoese_R"><path class="cls-5" d="M116.89,400.82a7.39,7.39,0,0,0,.68,1.91,1,1,0,0,0,.71.5c2.41.33,13.88,2,19,4.31,2,.89,14.75,1.58,18.44,1.76a1,1,0,0,0,1-.67,3.49,3.49,0,0,1,.27,2,.29.29,0,0,1-.29.22c-2,0-16.4-.18-18.92-.6-2.72-.45-20.12-4.61-21-5S116.56,402.68,116.89,400.82Z"/><path class="cls-3" d="M130.15,390.8H118.71c-3.3,6.63-1.81,10.66-1.14,11.93a1,1,0,0,0,.71.5c2.41.33,13.88,2,19,4.31,2,.89,14.75,1.58,18.44,1.76a1,1,0,0,0,1-1c-.35-4.47-4.56-9.83-10.59-10.9C135.46,395.48,130.15,390.8,130.15,390.8Z"/></g><g id="Shirt"><polygon class="cls-6" points="117.36 106.71 115.3 102.32 103.24 113.25 91.18 102.32 89.13 106.71 97.62 154.19 103.24 163.94 108.87 154.19 117.36 106.71"/><path class="cls-6" d="M112.07,108.35c-1.45-.09-8.68,4.83-8.83,4.93-.15-.1-7.38-5-8.83-4.93s-4.49,4.85-4.49,4.85,3.21-3.48,4.4-3.39c1,.08,6.57,2.46,8.37,3.24v51.44h.47V113.33s7.83-3.43,9-3.52,4.4,3.39,4.4,3.39S113.54,108.44,112.07,108.35Z"/><circle class="cls-6" cx="104.84" cy="115.17" r="1.1"/><path class="cls-6" d="M106.76,217c-3.19-2.38-5.44-4.41-5.44-4.41a37.35,37.35,0,0,1-3,4.41Z"/></g><g id="Jacket"><path class="cls-2" d="M141,115l-23.63-8.28-7.31,40.89A38.18,38.18,0,0,1,105.52,160l-2.28,3.95L101,160a38.39,38.39,0,0,1-4.52-12.39l-7.32-40.89L65.5,115c-3.62,1.21,4.38,40.19,4.38,40.19C71.23,160.38,76,181,77,185.63l2.2,38.69H84.4c7.78,0,13-5,16.92-11.73,0,0,13,11.73,20.76,11.73h5.26l2.19-38.69c1-4.68,5.72-25.25,7.07-30.45C136.6,155.18,144.61,116.2,141,115Z"/><circle class="cls-2" cx="104.4" cy="196.26" r="1.85"/><circle class="cls-2" cx="104.4" cy="179.24" r="1.85"/><path class="cls-7" d="M103.24,169.65a81.13,81.13,0,0,0,19.3-31.71l-5.75-4.28,7.44-1.29a103.5,103.5,0,0,0,3.45-22l-10.32-3.62-5.94,30.21c-.78,4.36-8.18,27-8.18,27s-7.4-22.66-8.18-27l-5.94-30.21-11.39,4a91.35,91.35,0,0,0,3.49,21.48l8.48,1.47-6.43,4.79a85.87,85.87,0,0,0,18,29.21l-1,3.78v40.33l1.06.82c-1-14.06-.25-37.05,0-41.06Z"/></g></g><g id="Face_03"><g id="ears"><path class="cls-1" d="M77.8,54.4V43H73.23c-2.4,0-4.41,2.78-4.36,6.58.06,5.54,2,7.34,4.36,7.34H77.9C77.83,56.09,77.8,55.25,77.8,54.4Z"/><path class="cls-8" d="M77.91,47H75.42a2.8,2.8,0,0,0-2.57,3h0a2.8,2.8,0,0,0,2.57,3h2.49Z"/><path class="cls-1" d="M129.73,54.4V43h4.56c2.4,0,4.41,2.78,4.37,6.58-.07,5.54-2,7.34-4.37,7.34h-4.67C129.69,56.09,129.73,55.25,129.73,54.4Z"/><path class="cls-8" d="M129.61,47h2.49a2.79,2.79,0,0,1,2.57,3h0a2.79,2.79,0,0,1-2.57,3h-2.49Z"/></g><path id="Face" class="cls-1" d="M109.07,9.76H98.45C86.64,9.76,77,20.74,77,34.16V71.1c0,5,7.73,11.12,15.92,16V101.9h21.73V87.05c8.14-4.91,15.91-11,15.91-16V34.16C130.54,20.74,120.88,9.76,109.07,9.76Z"/><path id="Shadow" class="cls-8" d="M103.76,90.85c-3.25,0-7.1-1.47-10.86-3.73V91.5c3.77,2.22,7.6,3.63,10.86,3.63s7-1.44,10.87-3.7V87.05C110.83,89.34,107,90.85,103.76,90.85Z"/><path class="cls-9" d="M88.84,57.4c.1-1.47-1.91-2.21-4.3-2.24H82.05a2.12,2.12,0,0,0-1.94,2.24h0a2.11,2.11,0,0,0,1.94,2.23h2.49C86.93,59.6,88.73,59,88.84,57.4Z"/><path class="cls-9" d="M118.68,57.4c-.1-1.47,1.92-2.21,4.3-2.24h2.49a2.11,2.11,0,0,1,1.94,2.24h0a2.1,2.1,0,0,1-1.94,2.23H123C120.6,59.6,118.79,59,118.68,57.4Z"/><path id="nose" class="cls-10" d="M103.76,63.6a34.41,34.41,0,0,1-8.35-1c-1-.24-1.94.32-1.48.84,1.7,1.94,5.46,3.76,9.83,3.76s8.13-1.82,9.83-3.76c.46-.52-.52-1.08-1.48-.84A34.41,34.41,0,0,1,103.76,63.6Z"/><g id="Eyes"><g id="Eye_L"><path class="cls-8" d="M94.19,47.74a4.52,4.52,0,1,1-4.52-4.52A4.52,4.52,0,0,1,94.19,47.74Z"/><path class="cls-11" d="M93.5,48.44a3.83,3.83,0,1,1-3.83-3.83A3.83,3.83,0,0,1,93.5,48.44Z"/><path class="cls-12" d="M91.52,48.43a1.08,1.08,0,0,1-1.08-1.08,1.09,1.09,0,0,1,.6-1,2.48,2.48,0,1,0,1.1,2.07,1.15,1.15,0,0,0,0-.19A1,1,0,0,1,91.52,48.43Z"/></g><g id="Eye_R"><path class="cls-8" d="M122.37,47.74a4.52,4.52,0,1,1-4.52-4.52A4.52,4.52,0,0,1,122.37,47.74Z"/><circle class="cls-11" cx="117.85" cy="48.44" r="3.83" transform="translate(-9.39 41.74) rotate(-19.33)"/><path class="cls-12" d="M119.71,48.43a1.09,1.09,0,0,1-.49-2.06,2.48,2.48,0,1,0,1.11,2.07c0-.07,0-.13,0-.19A1.09,1.09,0,0,1,119.71,48.43Z"/></g></g><g id="Brows"><path class="cls-13" d="M83,46.38A1,1,0,0,1,82,46a1,1,0,0,1,.24-1.42A15.24,15.24,0,0,1,84.73,43c2-.71,9.85-1.78,10.18-1.82a1,1,0,0,1,1.14.87,1,1,0,0,1-.85,1.15h0A93.47,93.47,0,0,0,85.4,45a14.21,14.21,0,0,0-2,1.24A1.05,1.05,0,0,1,83,46.38Z"/><path class="cls-13" d="M124.57,46.38a1,1,0,0,0,1-.42,1,1,0,0,0-.25-1.42A15.54,15.54,0,0,0,122.8,43c-2-.71-9.85-1.78-10.18-1.82a1,1,0,0,0-1.15.87,1,1,0,0,0,.85,1.15h0A93,93,0,0,1,122.12,45a14.17,14.17,0,0,1,2,1.24A1,1,0,0,0,124.57,46.38Z"/></g><path class="cls-13" d="M130.54,56.92S140.48,0,104.12,0C62.57,0,77,56.92,77,56.92S76.83,21.43,84.32,19c6.31-2,3.44,3.71,18.92,3.71s12.4-5,18.92-3.16S130.54,56.92,130.54,56.92Z"/><g id="Mouth"><path id="Mouth-2" data-name="Mouth" class="cls-8" d="M103.76,68.72c-4.82,0-6,.86-11.85.67a2.23,2.23,0,0,1-.51-.08c1.13,8.55,6,15,12.14,15s11.7-6.34,12.59-15a2.39,2.39,0,0,1-.52.08C108.71,69.77,108.59,68.72,103.76,68.72Z"/><path class="cls-14" d="M103.76,72.07c-5.16,0-9.71-.87-12.36-2.76.7,5.62,6,12.09,12.36,12.09s11.66-6.47,12.37-12.09C113.47,71.2,108.93,72.07,103.76,72.07Z"/><path class="cls-15" d="M103.76,81.4a10.49,10.49,0,0,0,5.58-1.68,3,3,0,0,0-1.82-.71H100a2.91,2.91,0,0,0-1.81.71A10.48,10.48,0,0,0,103.76,81.4Z"/><path class="cls-15" d="M113.62,71.84l.92-1.62c-2.7,1.26-6.53,1.85-10.78,1.85S95.68,71.48,93,70.22l.93,1.62a17.52,17.52,0,0,0,9.85,3C109.33,74.89,113.43,72.17,113.62,71.84Z"/></g></g><path class="cls-2" d="M66.73,115.27c-3.53,1-6.47,3.34-9.8,12.81a367.66,367.66,0,0,0-11,61.61c0,.21-.46-.25-1.21-1.22,1.54,8.09,3.46,16.3,3.45,24.85C62.85,220.39,61,217,64.94,198.08l5.61-32.64S81.54,122.54,66.73,115.27Z"/><g id="habd"><path id="Wrist_01" class="cls-1" d="M24.92,149.18l-4.47-10.82c2.28-3.37.25-8.77.25-8.77-.7-3.94.14-9.58-1-9.51-1.94.11-1.41,4.26-1.41,4.26s.5,3.8-.74,3.69c-.83-.08-4.71-14.79-5.37-15.51,0,0-.81-1.17-1.68-.91-1.36.42-.75,2.11-.75,2.11,0,.78,4.74,13.11,3.91,13.25S7.68,114.75,7.2,113.73c0,0-.65-1.56-1.93-1-1.46.6-.62,2.46-.62,2.46.66,1.76,6.28,13.42,5.58,13.68s-3.39-5.77-6.92-10.33c0,0-1-1.72-2.23-.86s.26,2.69.26,2.69C4.3,125,8.82,130.89,7.82,131S3,125.45,2,124.79c0,0-1-.93-1.78-.07s.59,2.09.59,2.09c.47.63,5.27,5.75,5.61,6.9s2.3,5.07,3.58,6,3.3,2.07,3.3,2.07l3.75,10.6Z"/><path class="cls-2" d="M25.53,141.57C21.12,147.28,11.74,149,11.74,149l35.89,63.55.62.41c1.19-8.46.41-16.85,0-25.08C43.67,180,25.53,141.57,25.53,141.57Z"/></g></g></g></svg>